<?xml version="1.0" encoding="utf-8"?>
<!-- Generator: Adobe Illustrator 21.0.0, SVG Export Plug-In . SVG Version: 6.00 Build 0)  -->
<svg version="1.1" id="Layer_1" xmlns="http://www.w3.org/2000/svg" xmlns:xlink="http://www.w3.org/1999/xlink" x="0px" y="0px"
	 width="1920px" height="1080px" viewBox="0 0 1920 1080" style="enable-background:new 0 0 1920 1080;" xml:space="preserve">
<style type="text/css">
	.st0{fill:#262626;}
	.st1{fill:#59CAEA;}
	.st2{fill:#01AAB5;}
	.st3{fill:#F37326;}
	.st4{fill:#F37029;}
	.st5{fill:#B02C9F;}
	.st6{fill:#F8931D;}
	.st7{fill:#F7991E;}
	.st8{fill:#068CA9;}
	.st9{fill:#DA3420;}
	.st10{fill:#01B7D4;}
	.st11{fill:#A360B9;}
	.st12{fill:#00A7B0;}
	.st13{fill:#D61E41;}
	.st14{fill:#C2349B;}
	.st15{fill:#EF4136;}
	.st16{fill:#F36F26;}
	.st17{fill:#D60EB1;}
	.st18{fill:#FCB315;}
	.st19{fill:#00A8CB;}
	.st20{fill:#08ACB7;}
	.st21{fill:#008A9F;}
	.st22{fill:#FFC20E;}
	.st23{fill:#2F7888;}
	.st24{fill:#FD9F13;}
	.st25{fill:#8E1D83;}
	.st26{fill:#8C1670;}
	.st27{fill:#B911D1;}
	.st28{fill:#B7059A;}
	.st29{fill:#F5821F;}
	.st30{fill:#FAA21C;}
	.st31{fill:#F9A01C;}
	.st32{fill:#8E002F;}
	.st33{fill:#EE1B39;}
	.st34{fill:#F89B1D;}
	.st35{fill:#EF474A;}
	.st36{fill:#F58120;}
	.st37{fill:#911A92;}
	.st38{fill:#B92E96;}
	.st39{fill:#ED4456;}
	.st40{fill:#D61E42;}
	.st41{fill:#EE1C36;}
	.st42{fill:#EE1748;}
	.st43{fill:#EE5A2F;}
	.st44{fill:#E91B3B;}
	.st45{fill:#C40F3F;}
	.st46{fill:#039BB1;}
	.st47{fill:#38C5ED;}
	.st48{fill:#058EA4;}
	.st49{fill:#D950B5;}
	.st50{fill:#ED1A43;}
</style>
<rect x="-0.3" y="-433.8" class="st0" width="1920.2" height="1795.7"/>
<g>
	<polygon class="st1" points="1419.1,1040.9 1525.6,1447.2 1612.2,908.6 	"/>
	<polygon class="st2" points="1184.1,1202 1525.6,1447.2 1419.1,1040.9 	"/>
	<polygon class="st5" points="1726.4,733.2 1693.2,784.2 1693.2,784.2 1761.6,739.8 	"/>
	<polygon class="st8" points="1737.7,1235.9 1703.2,885.1 1612.2,908.6 	"/>
	<polygon class="st5" points="1693.2,784.2 1922.9,769.8 1761.6,739.8 	"/>
	<polygon class="st11" points="1612.2,908.6 1703.2,885.1 1693.2,784.2 1693.2,784.2 1693.2,784.2 	"/>
	<polygon class="st12" points="1525.6,1447.2 1737.7,1235.9 1737.7,1235.9 1612.2,908.6 	"/>
	<polygon class="st14" points="1922.9,769.8 1922.9,769.8 1865.6,672.2 1761.6,739.8 	"/>
	<polygon class="st17" points="1920.7,435.2 1780.5,527.2 1818.5,592 	"/>
	<polygon class="st19" points="1419.1,1040.9 1612.2,908.6 1365.2,835.6 	"/>
	<polygon class="st20" points="1612.2,908.6 1693.2,784.2 1357.3,805.2 1365.2,835.6 	"/>
	<polygon class="st21" points="1726.4,733.2 1524.2,695.6 1357.3,805.2 1693.2,784.2 	"/>
	<polygon class="st7" points="916.3,1117.9 1184.1,1202 1119.9,989.9 	"/>
	<polygon class="st23" points="1737.7,1235.9 1922.9,1319.9 1922.9,1051.4 1737.7,1235.9 	"/>
	<polygon class="st19" points="1737.7,1235.9 1737.7,1235.9 1922.9,1051.4 1922.9,828.4 1703.2,885.1 	"/>
	<polygon class="st25" points="1922.9,769.8 1922.9,769.8 1922.9,635 1865.6,672.2 	"/>
	<polygon class="st26" points="1818.5,592 1865.6,672.2 1922.9,635 1922.9,433.7 1920.7,435.2 	"/>
	<polygon class="st14" points="1780.5,527.2 1920.7,435.2 1922.9,431.7 1922.9,394 1727.7,437.3 	"/>
	<polygon class="st27" points="1726.4,733.2 1818.5,592 1780.5,527.2 1524.2,695.6 	"/>
	<polygon class="st28" points="1761.6,739.8 1865.6,672.2 1818.5,592 1726.4,733.2 	"/>
	<polygon class="st32" points="-0.9,948.2 -0.9,1266.2 293.2,1060.9 	"/>
	<polygon class="st33" points="359.3,1086.2 293.2,1060.9 -0.9,1266.2 -0.9,1545.3 260.7,1254.9 	"/>
	<polygon class="st37" points="1922.9,261.7 1727.7,437.3 1922.9,394 	"/>
	<polygon class="st38" points="1780.5,527.2 1727.7,437.3 1524.2,695.6 	"/>
	<polygon class="st39" points="184.5,752.9 430,965.4 481.5,708 	"/>
	<polygon class="st40" points="481.5,708 430,965.4 636.6,832.6 	"/>
	<polygon class="st40" points="293.2,1060.9 359.3,1086.2 430,965.4 	"/>
	<polygon class="st41" points="359.3,1086.2 736.8,1230.8 430,965.4 	"/>
	<polygon class="st42" points="184.5,752.9 144.7,718.5 144.7,718.5 12.7,834.4 430,965.4 184.5,752.9 	"/>
	<polygon class="st40" points="144.7,718.5 144.7,718.5 -0.9,592.5 -0.9,830.2 12.7,834.4 	"/>
	<polygon class="st43" points="736.8,1230.8 799.4,1081.2 430,965.4 	"/>
	<polygon class="st40" points="-0.9,830.2 -0.9,846.4 12.7,834.4 	"/>
	<polygon class="st44" points="12.7,834.4 -0.9,846.4 -0.9,948.2 293.2,1060.9 430,965.4 	"/>
	<polygon class="st40" points="184.5,752.9 144.7,718.5 144.7,718.5 184.5,752.9 	"/>
	<polygon class="st45" points="144.7,718.5 -0.9,592.5 -0.9,592.5 144.7,718.5 	"/>
	<polygon class="st19" points="1357.3,805.2 1043.7,738.3 1119.9,989.9 1365.2,835.6 	"/>
	<polygon class="st46" points="883.1,864.1 799.4,1081.2 1043.7,738.3 	"/>
	<polygon class="st10" points="1357.3,805.2 1524.2,695.6 1043.7,738.3 	"/>
	<polygon class="st47" points="1043.7,738.3 1524.2,695.6 1227.9,640.4 	"/>
	<polygon class="st48" points="1184.1,1202 1419.1,1040.9 1119.9,989.9 	"/>
	<polygon class="st10" points="1119.9,989.9 1419.1,1040.9 1365.2,835.6 	"/>
	<polygon class="st5" points="1922.9,828.4 1922.9,769.8 1703.2,885.1 	"/>
	<polygon class="st49" points="1693.2,784.2 1703.2,885.1 1922.9,769.8 1693.2,784.2 	"/>
	<polygon class="st50" points="430,965.4 799.4,1081.2 636.6,832.6 	"/>
	<polygon class="st20" points="636.6,832.6 799.4,1081.2 883.1,864.1 	"/>
	<polygon class="st10" points="1043.7,738.3 799.4,1081.2 1119.9,989.9 	"/>
	<polygon class="st2" points="799.4,1081.2 916.3,1117.9 1119.9,989.9 	"/>
</g>
</svg>
